# xmcd
#
# Track frame offsets:
#	150
#	15724
#	34424
#	54106
#	76577
#	93161
#	108982
#	122184
#	138890
#	155499
#	169572
#	191512
#	208366
#	225311
#	242049
#	273968
#
# Disc length: 3658 seconds
#
# Revision: 0
# Processed by: cddbd v1.5.2PL0 Copyright (c) Steve Scherf et al.
# Submitted via: audiograbber 1.83.01
#
DISCID=c50e4810
DTITLE=Various Artist - Best-22 Gal Country Disk2
DYEAR=2003
DGENRE=Country
TTITLE0=Kassy Chambers - Not Pretty Enough
TTITLE1=Kellie Coffey - When You Lie Next To Me
TTITLE2=LeAnn Rimes - How Do I Live
TTITLE3=Lee Ann Womack - I Know Why The River Runs
TTITLE4=Lee Ann Womack - Stronger Than I Am
TTITLE5=Martina McBride - When God Fearin' Women Get The Blues
TTITLE6=Meredith Edwards - A RoseIs A Rose
TTITLE7=Pam Tillis - Thunder And Roses
TTITLE8=Reba McEntire - For My Broken Heart
TTITLE9=Reba McEntire - I'm A Survivor
TTITLE10=Sara Evan - I Keep Looking
TTITLE11=Sara Evans - Why Should I Care
TTITLE12=Shaia Twain - The Heart Is Blind
TTITLE13=Terri Clark - No Fear
TTITLE14=Willie Nelson and Lee Ann Womack - Mendocino County Line
TTITLE15=Data Track - Data Track
EXTD=
EXTT0=
EXTT1=
EXTT2=
EXTT3=
EXTT4=
EXTT5=
EXTT6=
EXTT7=
EXTT8=
EXTT9=
EXTT10=
EXTT11=
EXTT12=
EXTT13=
EXTT14=
EXTT15=
PLAYORDER=
